<svg width="40" height="40" viewBox="0 0 40 40" fill="none" xmlns="http://www.w3.org/2000/svg">
<rect width="40" height="40" rx="5" fill="black" fill-opacity="0.73"/>
<path d="M18.0664 22.7617C18.0664 21.668 18.1992 20.7969 18.4648 20.1484C18.7305 19.5 19.2148 18.8633 19.918 18.2383C20.6289 17.6055 21.1016 17.0938 21.3359 16.7031C21.5703 16.3047 21.6875 15.8867 21.6875 15.4492C21.6875 14.1289 21.0781 13.4688 19.8594 13.4688C19.2812 13.4688 18.8164 13.6484 18.4648 14.0078C18.1211 14.3594 17.9414 14.8477 17.9258 15.4727H14.5273C14.543 13.9805 15.0234 12.8125 15.9688 11.9688C16.9219 11.125 18.2188 10.7031 19.8594 10.7031C21.5156 10.7031 22.8008 11.1055 23.7148 11.9102C24.6289 12.707 25.0859 13.8359 25.0859 15.2969C25.0859 15.9609 24.9375 16.5898 24.6406 17.1836C24.3438 17.7695 23.8242 18.4219 23.082 19.1406L22.1328 20.043C21.5391 20.6133 21.1992 21.2812 21.1133 22.0469L21.0664 22.7617H18.0664ZM17.7266 26.3594C17.7266 25.8359 17.9023 25.4062 18.2539 25.0703C18.6133 24.7266 19.0703 24.5547 19.625 24.5547C20.1797 24.5547 20.6328 24.7266 20.9844 25.0703C21.3438 25.4062 21.5234 25.8359 21.5234 26.3594C21.5234 26.875 21.3477 27.3008 20.9961 27.6367C20.6523 27.9727 20.1953 28.1406 19.625 28.1406C19.0547 28.1406 18.5938 27.9727 18.2422 27.6367C17.8984 27.3008 17.7266 26.875 17.7266 26.3594Z" fill="white"/>
</svg>
