<svg width="66" height="40" viewBox="0 0 66 40" fill="none" xmlns="http://www.w3.org/2000/svg">
<rect width="66" height="40" rx="5" fill="black"/>
<path d="M9.15039 21.8672L7.7793 23.3438V27H5.14258V14.2031H7.7793V20.0039L8.93945 18.4131L12.2002 14.2031H15.4434L10.8994 19.8896L15.5752 27H12.4375L9.15039 21.8672ZM21.9121 27C21.7949 26.7715 21.71 26.4873 21.6572 26.1475C21.042 26.833 20.2422 27.1758 19.2578 27.1758C18.3262 27.1758 17.5527 26.9062 16.9375 26.3672C16.3281 25.8281 16.0234 25.1484 16.0234 24.3281C16.0234 23.3203 16.3955 22.5469 17.1396 22.0078C17.8896 21.4688 18.9707 21.1963 20.3828 21.1904H21.5518V20.6455C21.5518 20.2061 21.4375 19.8545 21.209 19.5908C20.9863 19.3271 20.6318 19.1953 20.1455 19.1953C19.7178 19.1953 19.3809 19.2979 19.1348 19.5029C18.8945 19.708 18.7744 19.9893 18.7744 20.3467H16.2344C16.2344 19.7959 16.4043 19.2861 16.7441 18.8174C17.084 18.3486 17.5645 17.9824 18.1855 17.7188C18.8066 17.4492 19.5039 17.3145 20.2773 17.3145C21.4492 17.3145 22.3779 17.6104 23.0635 18.2021C23.7549 18.7881 24.1006 19.6143 24.1006 20.6807V24.8027C24.1064 25.7051 24.2324 26.3877 24.4785 26.8506V27H21.9121ZM19.8115 25.2334C20.1865 25.2334 20.5322 25.1514 20.8486 24.9873C21.165 24.8174 21.3994 24.5918 21.5518 24.3105V22.6758H20.6025C19.3311 22.6758 18.6543 23.1152 18.5723 23.9941L18.5635 24.1436C18.5635 24.46 18.6748 24.7207 18.8975 24.9258C19.1201 25.1309 19.4248 25.2334 19.8115 25.2334ZM26.2188 27V14.2031H30.7012C32.2539 14.2031 33.4316 14.502 34.2344 15.0996C35.0371 15.6914 35.4385 16.5615 35.4385 17.71C35.4385 18.3369 35.2773 18.8906 34.9551 19.3711C34.6328 19.8457 34.1846 20.1943 33.6104 20.417C34.2666 20.5811 34.7822 20.9121 35.1572 21.4102C35.5381 21.9082 35.7285 22.5176 35.7285 23.2383C35.7285 24.4688 35.3359 25.4004 34.5508 26.0332C33.7656 26.666 32.6465 26.9883 31.1934 27H26.2188ZM28.8555 21.4277V24.8818H31.1143C31.7354 24.8818 32.2188 24.7354 32.5645 24.4424C32.916 24.1436 33.0918 23.7334 33.0918 23.2119C33.0918 22.04 32.4854 21.4453 31.2725 21.4277H28.8555ZM28.8555 19.5645H30.8066C32.1367 19.541 32.8018 19.0107 32.8018 17.9736C32.8018 17.3936 32.6318 16.9775 32.292 16.7256C31.958 16.4678 31.4277 16.3389 30.7012 16.3389H28.8555V19.5645ZM43.0586 27C42.9414 26.7715 42.8564 26.4873 42.8037 26.1475C42.1885 26.833 41.3887 27.1758 40.4043 27.1758C39.4727 27.1758 38.6992 26.9062 38.084 26.3672C37.4746 25.8281 37.1699 25.1484 37.1699 24.3281C37.1699 23.3203 37.542 22.5469 38.2861 22.0078C39.0361 21.4688 40.1172 21.1963 41.5293 21.1904H42.6982V20.6455C42.6982 20.2061 42.584 19.8545 42.3555 19.5908C42.1328 19.3271 41.7783 19.1953 41.292 19.1953C40.8643 19.1953 40.5273 19.2979 40.2812 19.5029C40.041 19.708 39.9209 19.9893 39.9209 20.3467H37.3809C37.3809 19.7959 37.5508 19.2861 37.8906 18.8174C38.2305 18.3486 38.7109 17.9824 39.332 17.7188C39.9531 17.4492 40.6504 17.3145 41.4238 17.3145C42.5957 17.3145 43.5244 17.6104 44.21 18.2021C44.9014 18.7881 45.2471 19.6143 45.2471 20.6807V24.8027C45.2529 25.7051 45.3789 26.3877 45.625 26.8506V27H43.0586ZM40.958 25.2334C41.333 25.2334 41.6787 25.1514 41.9951 24.9873C42.3115 24.8174 42.5459 24.5918 42.6982 24.3105V22.6758H41.749C40.4775 22.6758 39.8008 23.1152 39.7188 23.9941L39.71 24.1436C39.71 24.46 39.8213 24.7207 40.0439 24.9258C40.2666 25.1309 40.5713 25.2334 40.958 25.2334ZM49.5801 17.4902L49.6592 18.5537C50.333 17.7275 51.2441 17.3145 52.3926 17.3145C53.6172 17.3145 54.458 17.7979 54.915 18.7646C55.583 17.7979 56.5352 17.3145 57.7715 17.3145C58.8027 17.3145 59.5703 17.6162 60.0742 18.2197C60.5781 18.8174 60.8301 19.7197 60.8301 20.9268V27H58.2812V20.9355C58.2812 20.3965 58.1758 20.0039 57.9648 19.7578C57.7539 19.5059 57.3818 19.3799 56.8486 19.3799C56.0869 19.3799 55.5596 19.7432 55.2666 20.4697L55.2754 27H52.7354V20.9443C52.7354 20.3936 52.627 19.9951 52.4102 19.749C52.1934 19.5029 51.8242 19.3799 51.3027 19.3799C50.582 19.3799 50.0605 19.6787 49.7383 20.2764V27H47.1982V17.4902H49.5801Z" fill="#8EF8FF"/>
</svg>
